#!OML:ASF H:\ManfredETheater\Project 1\Capture day 1\Session 1\subject.ASF
:FULLY-SPECIFIED
:DEGREES
172
root -2.66259 19.057 31.8159 11.0654 -9.03983 -8.84791
lowerback 1.33456 5.71707 5.35863
upperback -3.99686 7.92424 1.75849
thorax -4.4225 3.78407 -1.52042
lowerneck -19.1713 -2.63765 -3.84551
upperneck 25.7724 -2.69992 0.727547
head 11.6761 -1.49506 0.499014
rclavicle -1.52816e-015 2.14687e-014
rhumerus -54.7142 21.1644 -92.414
rradius 127.375
rwrist -3.60313
rhand -16.6624 10.7505
rfingers 7.12502
rthumb 9.56109 -19.0126
lclavicle -1.52816e-015 2.14687e-014
lhumerus -96.5728 -13.213 95.1351
lradius 113.781
lwrist 18.9978
lhand -25.4085 -16.6526
lfingers 7.12502
lthumb 1.117 13.3242
rfemur 22.2335 5.67159 24.2644
rtibia 45.142
rfoot 13.6005 7.29368
rtoes -23.8287
lfemur -45.0563 -1.18938 -9.67846
ltibia 32.4868
lfoot 13.4922 -2.64298
ltoes -20.4389
173
root -2.68994 18.8479 32.3442 10.5984 -9.32148 -9.06961
lowerback 1.37936 5.70154 5.41127
upperback -3.92556 7.90984 1.89626
thorax -4.38695 3.77922 -1.40854
lowerneck -18.9403 -2.5091 -3.75852
upperneck 25.8529 -2.55162 0.711824
head 11.6554 -1.42345 0.504152
rclavicle 4.02632e-014 5.36719e-015
rhumerus -54.851 20.9409 -92.5122
rradius 126.466
rwrist -3.12924
rhand -16.062 10.9883
rfingers 7.12502
rthumb 10.1403 -18.7473
lclavicle 4.02632e-014 5.36719e-015
lhumerus -96.499 -12.8281 95.1409
lradius 114.405
lwrist 19.031
lhand -25.412 -16.6281
lfingers 7.12502
lthumb 1.11367 13.3487
rfemur 21.5595 5.77258 23.9614
rtibia 49.083
rfoot 12.6193 6.74009
rtoes -24.5046
lfemur -43.8441 -0.97483 -9.7761
ltibia 32.7235
lfoot 13.8812 -2.99184
ltoes -20.1005
174
root -2.71949 18.6259 32.8707 10.0811 -9.48961 -9.20565
lowerback 1.46107 5.63431 5.39364
upperback -3.86155 7.82632 2.01178
thorax -4.38935 3.74083 -1.28418
lowerneck -18.6698 -2.39122 -3.67634
upperneck 25.9086 -2.43062 0.738372
head 11.6187 -1.35907 0.521667
rclavicle 8.33653e-015 1.34677e-014
rhumerus -55.0541 20.4843 -92.6754
rradius 125.429
rwrist -2.56845
rhand -15.4928 11.1697
rfingers 7.12502
rthumb 10.6895 -18.5384
lclavicle 8.33653e-015 1.34677e-014
lhumerus -96.3039 -12.51 95.2145
lradius 114.987
lwrist 19.0127
lhand -25.3865 -16.5779
lfingers 7.12502
lthumb 1.13833 13.3989
rfemur 20.8415 5.66389 23.5457
rtibia 53.0568
rfoot 11.5932 5.80793
rtoes -25.2236
lfemur -42.5548 -0.541884 -10.1602
ltibia 33.2325
lfoot 13.3405 -3.76628
ltoes -20.5421
175
root -2.75051 18.3955 33.395 9.51581 -9.54197 -9.23766
lowerback 1.57996 5.51317 5.29508
upperback -3.79202 7.66931 2.09921
thorax -4.41649 3.66761 -1.14613
lowerneck -18.3855 -2.28636 -3.59554
upperneck 25.9263 -2.33388 0.785799
head 11.5656 -1.30289 0.543251
rclavicle -1.6378e-014 -9.93923e-015
rhumerus -55.3015 19.8167 -92.8806
rradius 124.273
rwrist -1.95024
rhand -14.9896 11.2828
rfingers 7.12502
rthumb 11.1748 -18.3996
lclavicle -1.6378e-014 -9.93923e-015
lhumerus -95.9559 -12.259 95.3525
lradius 115.52
lwrist 18.9471
lhand -25.3297 -16.4862
lfingers 7.12502
lthumb 1.19318 13.4902
rfemur 20.07 5.34414 22.9904
rtibia 57.0402
rfoot 10.529 4.52184
rtoes -25.933
lfemur -41.193 -0.00299295 -10.7691
ltibia 34.0524
lfoot 11.6679 -4.69497
ltoes -21.6493
176
root -2.78181 18.158 33.9165 8.91371 -9.48289 -9.17302
lowerback 1.75225 5.34217 5.13553
upperback -3.71333 7.44539 2.15328
thorax -4.46932 3.562 -1.01116
lowerneck -18.1472 -2.1932 -3.50825
upperneck 25.9271 -2.25479 0.838017
head 11.5155 -1.25319 0.562076
rclavicle -1.02405e-014 -6.55989e-015
rhumerus -55.5788 18.9448 -93.1127
rradius 123.002
rwrist -1.29876
rhand -14.5712 11.346
rfingers 7.12502
rthumb 11.5783 -18.3141
lclavicle -1.02405e-014 -6.55989e-015
lhumerus -95.4262 -12.0788 95.5481
lradius 115.996
lwrist 18.8583
lhand -25.258 -16.3956
lfingers 7.12502
lthumb 1.26242 13.5804
rfemur 19.2278 4.83151 22.2948
rtibia 61.0175
rfoot 9.44816 2.93199
rtoes -26.5196
lfemur -39.7878 0.508152 -11.5147
ltibia 35.1883
lfoot 8.78898 -5.51184
ltoes -22.581
